<svg width="262" height="40" viewBox="0 0 262 40" fill="none" xmlns="http://www.w3.org/2000/svg">
<g clip-path="url(#clip0_37_653)">
<mask id="mask0_37_653" style="mask-type:luminance" maskUnits="userSpaceOnUse" x="4" y="4" width="254" height="34">
<path d="M257.546 4.41797H4.10547V37.0244H257.546V4.41797Z" fill="white"/>
</mask>
<g mask="url(#mask0_37_653)">
<path d="M252.164 15.1703V6.46973H257.546V30.9614H252.164V29.2145H252.096C251.423 30.1394 249.607 31.5095 247.117 31.5095C242.542 31.5095 239.615 27.947 239.615 22.1924C239.615 16.4379 242.542 12.8754 247.117 12.8754C249.607 12.8754 251.423 14.2454 252.096 15.1703H252.164ZM248.598 27.3989C250.784 27.3989 252.063 25.6178 252.063 22.1924C252.063 18.767 250.784 16.986 248.598 16.986C246.411 16.986 245.132 18.767 245.132 22.1924C245.132 25.6178 246.411 27.3989 248.598 27.3989Z" fill="white"/>
</g>
<path d="M232.464 23.5619V13.4229H237.846V30.9608H232.464V28.4261H232.396C231.488 30.0359 229.806 31.5089 226.745 31.5089C223.414 31.5089 221.16 29.2822 221.16 25.2746V13.4229H226.543V23.5277C226.543 26.1653 227.451 27.0561 229.234 27.0561C231.286 27.0561 232.464 25.994 232.464 23.5623V23.5619Z" fill="white"/>
<path d="M210.131 31.5433C204.446 31.5433 200.98 27.7753 200.98 22.2262C200.98 16.6772 204.446 12.8408 210.232 12.8408C216.019 12.8408 219.383 16.6088 219.383 22.1237C219.383 27.6386 215.917 31.5433 210.131 31.5433ZM210.199 27.4327C212.587 27.4327 213.933 25.5828 213.933 22.1916C213.933 18.8004 212.587 16.9506 210.199 16.9506C207.81 16.9506 206.431 18.8004 206.431 22.1916C206.431 25.5828 207.776 27.4327 210.199 27.4327Z" fill="white"/>
<path d="M199.096 6.46973H193.713V30.9614H199.096V6.46973Z" fill="white"/>
<path d="M181.199 31.5093C173.562 31.5093 169.693 26.0974 169.693 18.801C169.693 11.5046 173.764 5.92139 181.367 5.92139C187.927 5.92139 191.426 9.89489 191.998 15.5811H185.808C185.371 12.9093 184.294 10.9569 181.098 10.9569C177.095 10.9569 175.884 14.1085 175.884 18.6985C175.884 23.2884 177.095 26.4742 181.098 26.4742C184.328 26.4742 185.404 24.5218 185.808 21.7812H191.998C191.46 27.3991 187.827 31.5093 181.199 31.5093Z" fill="white"/>
<path d="M166.63 27.1931C167.135 27.1931 167.437 27.159 168.077 27.056V30.9265C166.933 31.2004 165.957 31.3033 164.881 31.3033C161.113 31.3033 159.498 29.5565 159.498 25.2745V17.533H157.109V13.4223H159.498V8.52393H164.881V13.4223H167.875V17.533H164.881V25.1374C164.881 27.0214 165.587 27.1927 166.63 27.1927V27.1931Z" fill="white"/>
<path d="M155.494 11.334H150.111V6.46973H155.494V11.334ZM155.494 30.9614H150.111V13.4235H155.494V30.9614Z" fill="white"/>
<path d="M140.606 31.5092C134.585 31.5092 132.229 28.5636 132.095 25.1382H137.141C137.309 26.8851 138.453 27.7416 140.505 27.7416C142.086 27.7416 142.793 27.2277 142.793 26.2344C142.793 24.6589 141.077 24.4875 138.587 23.9053C135.56 23.1858 132.431 21.9529 132.431 18.3904C132.431 15.1021 135.122 12.8755 139.966 12.8755C145.484 12.8755 147.637 15.7186 147.805 18.8013H142.759C142.59 17.3971 141.85 16.6435 140.068 16.6435C138.587 16.6435 137.948 17.1916 137.948 18.0477C137.948 19.2123 138.957 19.2807 141.548 19.8976C144.946 20.7195 148.31 21.7474 148.31 25.8234C148.31 29.4885 145.585 31.5096 140.606 31.5096L140.606 31.5092Z" fill="white"/>
<mask id="mask1_37_653" style="mask-type:luminance" maskUnits="userSpaceOnUse" x="4" y="4" width="254" height="34">
<path d="M257.546 4.41797H4.10547V37.0244H257.546V4.41797Z" fill="white"/>
</mask>
<g mask="url(#mask1_37_653)">
<path d="M121.841 31.5438C116.156 31.5438 112.69 27.7758 112.69 22.2267C112.69 16.6777 116.156 12.8413 121.942 12.8413C127.729 12.8413 131.093 16.6093 131.093 22.1242C131.093 27.6391 127.627 31.5438 121.841 31.5438ZM121.909 27.4332C124.297 27.4332 125.643 25.5833 125.643 22.1921C125.643 18.8009 124.297 16.9511 121.909 16.9511C119.52 16.9511 118.141 18.8009 118.141 22.1921C118.141 25.5833 119.486 27.4332 121.909 27.4332Z" fill="white"/>
<path d="M103.992 12.8755C108.567 12.8755 111.494 16.438 111.494 22.1926C111.494 27.9471 108.567 31.5096 103.992 31.5096C101.502 31.5096 99.6854 30.1396 99.0124 29.2147H98.9453V37.0245H93.5625V13.4236H98.9453V15.1705H99.0124C99.6854 14.2456 101.502 12.8755 103.992 12.8755ZM102.511 27.399C104.698 27.399 105.977 25.618 105.977 22.1926C105.977 18.7672 104.698 16.9861 102.511 16.9861C100.324 16.9861 99.046 18.7672 99.046 22.1926C99.046 25.618 100.324 27.399 102.511 27.399Z" fill="white"/>
</g>
<path d="M91.8317 22.8427V23.6647H79.4516C79.4516 26.0968 81.1337 27.4327 83.1523 27.4327C85.1709 27.4327 85.8774 26.5419 86.2135 25.6516H91.697C90.7215 29.2142 87.8616 31.5433 83.0171 31.5433C77.4325 31.5433 74.0684 27.6728 74.0684 22.1921C74.0684 17.054 77.2307 12.8408 83.0171 12.8408C88.8036 12.8408 91.8312 16.3692 91.8312 22.8432L91.8317 22.8427ZM79.4851 20.2739H86.4153C86.4153 18.0131 85.1033 16.8143 83.0176 16.8143C80.9318 16.8143 79.6198 18.0131 79.4851 20.2739Z" fill="white"/>
<mask id="mask2_37_653" style="mask-type:luminance" maskUnits="userSpaceOnUse" x="4" y="4" width="254" height="34">
<path d="M257.546 4.41797H4.10547V37.0244H257.546V4.41797Z" fill="white"/>
</mask>
<g mask="url(#mask2_37_653)">
<path d="M62.5039 30.9614H51.5029V6.46973H62.1674C68.8622 6.46973 72.8994 10.8542 72.8994 18.7324C72.8994 26.6106 69.1987 30.9609 62.5039 30.9609V30.9614ZM57.5587 25.9258H61.4277C65.1955 25.9258 66.7093 23.1857 66.7093 18.7324C66.7093 14.2792 65.1955 11.5048 61.4277 11.5048H57.5587V25.9258Z" fill="white"/>
<path d="M12.9513 31.2242C13.0027 31.2251 13.0546 31.2255 13.1065 31.2255C13.1583 31.2255 13.2098 31.2251 13.2616 31.2242H13.9517V25.5256C13.9517 25.1412 14.1203 24.7768 14.4119 24.5327L22.9261 17.3908C23.2762 17.0975 23.7814 17.0975 24.1314 17.3908L32.6456 24.5327C32.9367 24.7773 33.1054 25.1412 33.1059 25.5256V30.5993C38.4337 28.8844 42.2957 23.8111 42.2957 17.8195C42.2957 10.4184 36.4029 4.41846 29.1341 4.41846C23.3076 4.41846 18.3655 8.27302 16.6337 13.6144C15.5505 13.1448 14.3588 12.8847 13.1073 12.8847C8.13298 12.8847 4.10059 16.9905 4.10059 22.0553C4.10059 27.1202 8.02576 31.1155 12.9077 31.2237V31.2246H12.9522L12.9513 31.2242Z" fill="white"/>
</g>
<path d="M23.5303 24.2183C22.1869 24.2183 21.0977 25.3274 21.0977 26.6952V31.2222H25.963V26.6952C25.963 25.3274 24.8738 24.2183 23.5303 24.2183Z" fill="white"/>
</g>
<defs>
<clipPath id="clip0_37_653">
<rect width="262" height="40" fill="white"/>
</clipPath>
</defs>
</svg>
