<svg preserveAspectRatio="none" width="100%" height="100%" overflow="visible" style="display: block;" viewBox="0 0 17.7633 18.7025" fill="none" xmlns="http://www.w3.org/2000/svg">
<path id="Vector" d="M17.7633 10.0019V10.8238H5.38322C5.38322 13.256 7.06531 14.5919 9.0839 14.5919C11.1025 14.5919 11.8091 13.7011 12.1451 12.8108H17.6286C16.6531 16.3733 13.7932 18.7025 8.94878 18.7025C3.36418 18.7025 0 14.832 0 9.35125C0 4.21317 3.16237 0 8.94878 0C14.7352 0 17.7629 3.52836 17.7629 10.0023L17.7633 10.0019ZM5.41678 7.43307H12.347C12.347 5.17226 11.0349 3.9735 8.94921 3.9735C6.86349 3.9735 5.55147 5.17226 5.41678 7.43307Z" fill="var(--fill-0, white)"/>
</svg>
